<svg width="17" height="19" viewBox="0 0 17 19" fill="none" xmlns="http://www.w3.org/2000/svg">
<path d="M15.834 9.40364C15.8404 11.0155 15.416 12.5932 14.6146 13.9374C13.8132 15.2815 12.6706 16.3316 11.3315 16.955C9.9924 17.5784 8.51682 17.747 7.09138 17.4395C5.66593 17.1319 4.35466 16.3621 3.32336 15.2274C2.29207 14.0927 1.58709 12.6439 1.29756 11.0645C1.00804 9.48498 1.14697 7.84566 1.69681 6.35383C2.24664 4.862 3.18267 3.58465 4.38652 2.68331C5.59038 1.78198 7.00799 1.29714 8.46009 1.29012C10.4072 1.2807 12.278 2.13021 13.6608 3.65178C15.0437 5.17335 15.8254 7.24234 15.834 9.40364Z" stroke="#A8A8A8" stroke-width="1.5"/>
<path d="M11.9361 6.80432C11.4434 6.64605 10.9327 6.42164 10.4155 6.19487C10.3857 6.05078 10.2708 5.87125 10.0383 5.65216C9.7005 5.32677 9.06579 5.33504 8.51727 5.47913C7.91183 5.32086 7.31383 5.26476 6.73978 5.42007C2.04466 6.85569 4.70691 10.3582 2.98315 13.8791C3.22842 14.4566 5.87205 17.8263 9.6973 16.9222C9.6973 16.9222 8.38906 13.4326 11.3413 11.7578C13.7359 10.3943 15.466 7.87144 11.9361 6.80432Z" fill="#A8A8A8"/>
<path d="M12.5163 9.09836C12.5166 9.16084 12.5002 9.22203 12.4692 9.27418C12.4382 9.32633 12.3939 9.3671 12.342 9.39133C12.2902 9.41557 12.233 9.42218 12.1777 9.41033C12.1224 9.39849 12.0715 9.36871 12.0315 9.32478C11.9915 9.28084 11.9641 9.22471 11.9528 9.1635C11.9415 9.10228 11.9468 9.03872 11.9681 8.98086C11.9893 8.92299 12.0256 8.87342 12.0722 8.83842C12.1188 8.80341 12.1738 8.78454 12.2301 8.78418C12.2674 8.78395 12.3045 8.79189 12.3391 8.80755C12.3737 8.82322 12.4052 8.84629 12.4318 8.87547C12.4584 8.90464 12.4795 8.93934 12.494 8.97758C12.5085 9.01583 12.5161 9.05686 12.5163 9.09836Z" fill="#042A64"/>
<path d="M8.51746 5.47886C8.85955 5.50603 10.0965 5.9513 10.4157 6.1946C10.1497 5.33831 9.25431 5.22433 8.51746 5.47886Z" fill="#A8A8A8"/>
<path d="M8.84287 7.6434C8.84298 7.9317 8.76605 8.21355 8.62183 8.45331C8.47761 8.69307 8.27257 8.87997 8.03264 8.99037C7.79272 9.10077 7.52868 9.1297 7.27394 9.07352C7.0192 9.01733 6.78519 8.87855 6.60151 8.67473C6.41783 8.4709 6.29274 8.21119 6.24205 7.92844C6.19136 7.64569 6.21735 7.35261 6.31674 7.08626C6.41613 6.81991 6.58445 6.59226 6.80041 6.43211C7.01637 6.27195 7.27027 6.18649 7.52999 6.18652C7.87811 6.18657 8.21197 6.34006 8.45816 6.61326C8.70435 6.88646 8.84273 7.25699 8.84287 7.6434Z" fill="#042A64"/>
<path d="M8.45376 7.65727C8.45376 7.86003 8.39959 8.05824 8.2981 8.22683C8.19662 8.39543 8.05237 8.52683 7.88361 8.60442C7.71484 8.68202 7.52914 8.70232 7.34998 8.66276C7.17082 8.6232 7.00625 8.52556 6.87708 8.38219C6.74792 8.23881 6.65995 8.05614 6.62431 7.85727C6.58868 7.65841 6.60697 7.45228 6.67687 7.26495C6.74678 7.07762 6.86516 6.91751 7.01704 6.80486C7.16892 6.69221 7.34749 6.63208 7.53016 6.63208C7.77511 6.63208 8.01003 6.74009 8.18324 6.93235C8.35645 7.12461 8.45376 7.38537 8.45376 7.65727Z" fill="#A8A8A8"/>
<path d="M13.5798 9.73938C12.5158 10.5715 11.306 11.2028 9.58965 11.2028C8.7863 11.2028 8.6235 10.2579 8.09254 10.7197C7.81854 10.9594 6.85239 11.4957 6.08574 11.4549C5.31909 11.4142 4.07628 10.9152 3.72994 9.09863C3.59267 10.9152 3.52245 12.2533 2.90796 13.787C4.13162 15.962 7.04924 17.6397 9.69765 16.9169C9.41302 14.7112 11.1495 12.551 12.1279 11.4455C12.5004 11.0268 13.208 10.3435 13.5798 9.7382V9.73938Z" fill="#A8A8A8"/>
<path d="M13.5384 9.79492C13.208 10.1292 12.8148 10.3766 12.4148 10.5951C12.0098 10.8085 11.5876 10.9792 11.1539 11.1048C10.7197 11.2294 10.267 11.3233 9.80838 11.2772C9.34977 11.2311 8.88106 11.0581 8.57727 10.6766L8.59163 10.6583C8.96405 10.9264 9.39393 11.0209 9.82168 11.0345C10.2552 11.0491 10.6889 11.0095 11.1145 10.9164C11.5444 10.8165 11.9649 10.6721 12.3706 10.4853C12.7765 10.2992 13.1782 10.0837 13.524 9.77661L13.5384 9.79492Z" fill="#042A64"/>
</svg>
