<svg width="222" height="42" viewBox="0 0 222 42" fill="none" xmlns="http://www.w3.org/2000/svg">
<path d="M56.8916 4.20001V19.0652H64.5366V17.3664H58.6967V4.20001H56.8916Z" fill="#1B1773"/>
<path d="M66.8709 11.6326C66.8709 10.5142 67.1116 9.5161 67.5929 8.63834C68.0884 7.76059 68.7609 7.06688 69.6103 6.55721C70.4598 6.04755 71.4225 5.79271 72.4984 5.79271C73.5886 5.79271 74.5513 6.04755 75.3865 6.55721C76.236 7.06688 76.9014 7.76059 77.3827 8.63834C77.8782 9.5161 78.126 10.5142 78.126 11.6326C78.126 12.7511 77.8782 13.7492 77.3827 14.6269C76.9014 15.5047 76.236 16.1984 75.3865 16.708C74.5513 17.2177 73.5886 17.4725 72.4984 17.4725C71.4225 17.4725 70.4598 17.2177 69.6103 16.708C68.7609 16.1984 68.0884 15.5047 67.5929 14.6269C67.1116 13.7492 66.8709 12.7511 66.8709 11.6326ZM64.9596 11.6326C64.9596 12.7086 65.1437 13.7138 65.5118 14.6481C65.894 15.5825 66.4249 16.3966 67.1045 17.0903C67.784 17.7698 68.5839 18.3078 69.5042 18.7042C70.4244 19.0865 71.4225 19.2776 72.4984 19.2776C73.5886 19.2776 74.5866 19.0865 75.4927 18.7042C76.4129 18.3078 77.2128 17.7698 77.8924 17.0903C78.5719 16.3966 79.0958 15.5825 79.4639 14.6481C79.8461 13.7138 80.0372 12.7086 80.0372 11.6326C80.0372 10.5425 79.8461 9.53734 79.4639 8.61711C79.0958 7.68272 78.5719 6.87575 77.8924 6.1962C77.2128 5.50249 76.4129 4.96451 75.4927 4.58226C74.5866 4.18585 73.5886 3.98765 72.4984 3.98765C71.4225 3.98765 70.4244 4.18585 69.5042 4.58226C68.5839 4.96451 67.784 5.50249 67.1045 6.1962C66.4249 6.87575 65.894 7.68272 65.5118 8.61711C65.1437 9.53734 64.9596 10.5425 64.9596 11.6326Z" fill="#1B1773"/>
<path d="M83.6482 11.6326C83.6482 10.4717 83.903 9.45947 84.4127 8.59587C84.9365 7.71812 85.6161 7.03148 86.4513 6.53598C87.2866 6.04047 88.1927 5.79271 89.1696 5.79271C89.8774 5.79271 90.5216 5.88474 91.102 6.06878C91.6966 6.25283 92.2346 6.51474 92.716 6.85452C93.1973 7.18013 93.6079 7.56238 93.9477 8.00126V5.62283C93.3247 5.07069 92.6452 4.66012 91.909 4.39113C91.1728 4.12214 90.2597 3.98765 89.1696 3.98765C88.1361 3.98765 87.1663 4.17877 86.2602 4.56102C85.3683 4.92912 84.5826 5.46002 83.903 6.15373C83.2235 6.83328 82.6926 7.64025 82.3103 8.57464C81.9281 9.50902 81.7369 10.5284 81.7369 11.6326C81.7369 12.7369 81.9281 13.7562 82.3103 14.6906C82.6926 15.625 83.2235 16.439 83.903 17.1328C84.5826 17.8123 85.3683 18.3432 86.2602 18.7255C87.1663 19.0936 88.1361 19.2776 89.1696 19.2776C90.2597 19.2776 91.1728 19.1431 91.909 18.8741C92.6452 18.6051 93.3247 18.1946 93.9477 17.6424V15.264C93.6079 15.7029 93.1973 16.0922 92.716 16.432C92.2346 16.7576 91.6966 17.0124 91.102 17.1965C90.5216 17.3805 89.8774 17.4725 89.1696 17.4725C88.1927 17.4725 87.2866 17.2248 86.4513 16.7293C85.6161 16.2338 84.9365 15.5471 84.4127 14.6694C83.903 13.7916 83.6482 12.7794 83.6482 11.6326Z" fill="#1B1773"/>
<path d="M98.2357 14.6057H106.093L105.456 12.9068H98.8728L98.2357 14.6057ZM102.122 7.5553L104.67 13.5439L104.84 13.9686L107.006 19.0652H109.024L102.122 3.45675L95.2202 19.0652H97.2376L99.4461 13.8412L99.616 13.4589L102.122 7.5553Z" fill="#1B1773"/>
<path d="M110.832 4.20001V19.0652H118.477V17.3664H112.637V4.20001H110.832Z" fill="#1B1773"/>
<path d="M125.145 7.40665H129.222V19.0652H132.811V7.40665H136.91V4.20001H125.145V7.40665Z" fill="#1B1773"/>
<path d="M142.252 12.3334L146.414 19.0652H150.619L145.968 12.3334H142.252ZM138.535 4.20001V19.0652H142.124V4.20001H138.535ZM140.786 7.23676H143.696C144.177 7.23676 144.588 7.31463 144.927 7.47036C145.281 7.62609 145.55 7.85261 145.734 8.14992C145.918 8.43306 146.01 8.77992 146.01 9.19048C146.01 9.60104 145.918 9.95498 145.734 10.2523C145.55 10.5354 145.281 10.7549 144.927 10.9106C144.588 11.0522 144.177 11.123 143.696 11.123H140.786V13.9049H143.951C145.225 13.9049 146.287 13.6996 147.136 13.289C147.985 12.8785 148.63 12.3122 149.068 11.5902C149.507 10.854 149.727 10.0116 149.727 9.06306C149.727 8.10036 149.507 7.258 149.068 6.53598C148.63 5.79979 147.985 5.22642 147.136 4.81586C146.287 4.40529 145.225 4.20001 143.951 4.20001H140.786V7.23676Z" fill="#1B1773"/>
<path d="M154.621 16.1984H162.478L162.245 13.4589H154.876L154.621 16.1984ZM158.507 9.65767L160.609 14.4783L160.482 15.3914L162.266 19.0652H166.343L158.507 3.26562L150.692 19.0652H154.748L156.596 15.2428L156.426 14.457L158.507 9.65767Z" fill="#1B1773"/>
<path d="M167.901 4.20001V19.0652H171.596V4.20001H167.901ZM173.21 19.0652C174.838 19.0652 176.247 18.7609 177.436 18.1521C178.625 17.5433 179.545 16.6868 180.197 15.5825C180.848 14.4641 181.173 13.1475 181.173 11.6326C181.173 10.1036 180.848 8.787 180.197 7.68272C179.545 6.57845 178.625 5.72193 177.436 5.11316C176.247 4.50439 174.838 4.20001 173.21 4.20001H170.279V7.38542H173.082C173.649 7.38542 174.194 7.4562 174.718 7.59778C175.256 7.73935 175.723 7.97295 176.119 8.29857C176.53 8.62419 176.855 9.06306 177.096 9.6152C177.337 10.1532 177.457 10.8257 177.457 11.6326C177.457 12.4396 177.337 13.1191 177.096 13.6713C176.855 14.2093 176.53 14.6411 176.119 14.9667C175.723 15.2923 175.256 15.5259 174.718 15.6675C174.194 15.809 173.649 15.8798 173.082 15.8798H170.279V19.0652H173.21Z" fill="#1B1773"/>
<path d="M185.854 19.0652H193.35V16.1134H185.854V19.0652ZM185.854 7.15182H193.35V4.20001H185.854V7.15182ZM185.854 12.6944H192.925V9.80633H185.854V12.6944ZM183.475 4.20001V19.0652H186.916V4.20001H183.475Z" fill="#1B1773"/>
<path d="M199.987 12.3334L204.149 19.0652H208.354L203.704 12.3334H199.987ZM196.271 4.20001V19.0652H199.86V4.20001H196.271ZM198.522 7.23676H201.431C201.913 7.23676 202.323 7.31463 202.663 7.47036C203.017 7.62609 203.286 7.85261 203.47 8.14992C203.654 8.43306 203.746 8.77992 203.746 9.19048C203.746 9.60104 203.654 9.95498 203.47 10.2523C203.286 10.5354 203.017 10.7549 202.663 10.9106C202.323 11.0522 201.913 11.123 201.431 11.123H198.522V13.9049H201.686C202.96 13.9049 204.022 13.6996 204.871 13.289C205.721 12.8785 206.365 12.3122 206.804 11.5902C207.243 10.854 207.462 10.0116 207.462 9.06306C207.462 8.10036 207.243 7.258 206.804 6.53598C206.365 5.79979 205.721 5.22642 204.871 4.81586C204.022 4.40529 202.96 4.20001 201.686 4.20001H198.522V7.23676Z" fill="#1B1773"/>
<path d="M211.656 13.8412L209.15 15.6462C209.489 16.3541 209.964 17.0053 210.573 17.6C211.181 18.1946 211.896 18.6688 212.717 19.0228C213.553 19.3625 214.452 19.5324 215.414 19.5324C216.108 19.5324 216.781 19.4263 217.432 19.2139C218.097 19.0157 218.685 18.7184 219.194 18.322C219.718 17.9256 220.129 17.4371 220.426 16.8567C220.738 16.2621 220.893 15.5896 220.893 14.8393C220.893 14.2163 220.794 13.6642 220.596 13.1829C220.398 12.7015 220.122 12.2768 219.768 11.9087C219.428 11.5406 219.032 11.2291 218.579 10.9743C218.125 10.7053 217.637 10.4717 217.113 10.2735C216.42 10.0328 215.825 9.80633 215.329 9.59397C214.848 9.3816 214.473 9.14801 214.204 8.89318C213.949 8.63834 213.822 8.34104 213.822 8.00126C213.822 7.67564 213.956 7.40665 214.225 7.19429C214.494 6.96777 214.883 6.85452 215.393 6.85452C215.775 6.85452 216.129 6.93238 216.455 7.08811C216.795 7.22969 217.099 7.43497 217.368 7.70396C217.651 7.95879 217.899 8.26317 218.111 8.61711L220.851 7.08811C220.596 6.57845 220.228 6.07586 219.747 5.58035C219.265 5.08485 218.656 4.67428 217.92 4.34866C217.198 4.02304 216.342 3.86023 215.351 3.86023C214.388 3.86023 213.51 4.03012 212.717 4.3699C211.939 4.69552 211.316 5.17687 210.849 5.81395C210.396 6.45103 210.169 7.20845 210.169 8.08621C210.169 8.82239 210.304 9.45239 210.573 9.97621C210.842 10.4859 211.181 10.9248 211.592 11.2928C212.002 11.6468 212.434 11.937 212.887 12.1635C213.354 12.39 213.765 12.567 214.119 12.6944C214.841 12.9634 215.421 13.2041 215.86 13.4165C216.299 13.6288 216.618 13.8553 216.816 14.096C217.014 14.3225 217.113 14.6269 217.113 15.0092C217.113 15.4622 216.943 15.8232 216.604 16.0922C216.264 16.347 215.832 16.4744 215.308 16.4744C214.813 16.4744 214.338 16.3683 213.885 16.1559C213.446 15.9435 213.036 15.6392 212.654 15.2428C212.286 14.8463 211.953 14.3792 211.656 13.8412Z" fill="#1B1773"/>
<rect x="56.8262" y="24.5078" width="164.988" height="13.6128" fill="#9C6AFD"/>
<path d="M67.2533 31.4493C67.2533 31.0681 67.3377 30.7387 67.5065 30.461C67.6807 30.1833 67.9067 29.9709 68.1844 29.8239C68.4621 29.6714 68.7643 29.5952 69.091 29.5952C69.3633 29.5952 69.6056 29.6306 69.818 29.7014C70.0303 29.7722 70.2209 29.8674 70.3897 29.9872C70.5639 30.107 70.7137 30.2377 70.8389 30.3793V29.0643C70.6048 28.8791 70.3489 28.7349 70.0712 28.6314C69.7989 28.5279 69.4531 28.4762 69.0339 28.4762C68.5982 28.4762 68.1926 28.547 67.8169 28.6886C67.4466 28.8301 67.1226 29.0343 66.8449 29.3011C66.5727 29.568 66.3603 29.8838 66.2078 30.2486C66.0608 30.608 65.9873 31.0082 65.9873 31.4493C65.9873 31.8903 66.0608 32.2933 66.2078 32.6581C66.3603 33.0175 66.5727 33.3306 66.8449 33.5974C67.1226 33.8642 67.4466 34.0684 67.8169 34.2099C68.1926 34.3515 68.5982 34.4223 69.0339 34.4223C69.4531 34.4223 69.7989 34.3706 70.0712 34.2671C70.3489 34.1637 70.6048 34.0194 70.8389 33.8342V32.5192C70.7137 32.6608 70.5639 32.7915 70.3897 32.9113C70.2209 33.0311 70.0303 33.1264 69.818 33.1971C69.6056 33.2679 69.3633 33.3033 69.091 33.3033C68.7643 33.3033 68.4621 33.2298 68.1844 33.0828C67.9067 32.9303 67.6807 32.7153 67.5065 32.4375C67.3377 32.1544 67.2533 31.825 67.2533 31.4493Z" fill="white"/>
<path d="M76.1993 31.6453L77.9145 34.308H79.2949L77.4326 31.6453H76.1993ZM74.9006 28.5906V34.308H76.0686V28.5906H74.9006ZM75.6112 29.587H76.7465C76.9535 29.587 77.1304 29.6224 77.2774 29.6932C77.4299 29.7585 77.547 29.8566 77.6287 29.9872C77.7103 30.1125 77.7512 30.2649 77.7512 30.4446C77.7512 30.6243 77.7103 30.7795 77.6287 30.9102C77.547 31.0354 77.4299 31.1334 77.2774 31.2042C77.1304 31.2696 76.9535 31.3022 76.7465 31.3022H75.6112V32.2334H76.82C77.272 32.2334 77.6559 32.1571 77.9717 32.0047C78.2875 31.8522 78.5298 31.6398 78.6986 31.3676C78.8674 31.0899 78.9518 30.7713 78.9518 30.412C78.9518 30.0471 78.8674 29.7286 78.6986 29.4563C78.5298 29.1841 78.2875 28.9717 77.9717 28.8193C77.6559 28.6668 77.272 28.5906 76.82 28.5906H75.6112V29.587Z" fill="white"/>
<path d="M86.0423 28.5906L84.809 30.8939L83.5839 28.5906H82.2525L84.2209 31.9475V34.308H85.4053V31.9393L87.3737 28.5906H86.0423Z" fill="white"/>
<path d="M90.9014 28.5906V34.308H92.0694V28.5906H90.9014ZM91.612 29.5788H92.7473C93.0576 29.5788 93.3027 29.6496 93.4824 29.7912C93.6621 29.9273 93.7519 30.1343 93.7519 30.412C93.7519 30.6842 93.6621 30.8911 93.4824 31.0327C93.3027 31.1743 93.0576 31.2451 92.7473 31.2451H91.612V32.2334H92.7473C93.1992 32.2334 93.5831 32.1598 93.8989 32.0128C94.2202 31.8658 94.4652 31.6562 94.634 31.3839C94.8028 31.1062 94.8872 30.7822 94.8872 30.412C94.8872 30.0362 94.8028 29.7123 94.634 29.44C94.4652 29.1677 94.2202 28.9581 93.8989 28.8111C93.5831 28.6641 93.1992 28.5906 92.7473 28.5906H91.612V29.5788Z" fill="white"/>
<path d="M97.8714 29.6442H99.4069V34.308H100.575V29.6442H102.119V28.5906H97.8714V29.6442Z" fill="white"/>
<path d="M106.182 31.4493C106.182 31.0844 106.258 30.7604 106.41 30.4773C106.563 30.1942 106.772 29.9709 107.039 29.8075C107.306 29.6442 107.616 29.5625 107.97 29.5625C108.33 29.5625 108.643 29.6442 108.91 29.8075C109.176 29.9709 109.383 30.1942 109.53 30.4773C109.677 30.7604 109.751 31.0844 109.751 31.4493C109.751 31.8141 109.675 32.1381 109.522 32.4212C109.375 32.7044 109.168 32.9276 108.901 33.091C108.635 33.2543 108.324 33.336 107.97 33.336C107.616 33.336 107.306 33.2543 107.039 33.091C106.772 32.9276 106.563 32.7044 106.41 32.4212C106.258 32.1381 106.182 31.8141 106.182 31.4493ZM104.948 31.4493C104.948 31.8794 105.022 32.2796 105.169 32.6499C105.316 33.0147 105.525 33.3333 105.798 33.6055C106.07 33.8778 106.388 34.0901 106.753 34.2426C107.124 34.3896 107.529 34.4631 107.97 34.4631C108.411 34.4631 108.814 34.3896 109.179 34.2426C109.549 34.0901 109.868 33.8778 110.135 33.6055C110.407 33.3333 110.617 33.0147 110.764 32.6499C110.916 32.2796 110.992 31.8794 110.992 31.4493C110.992 31.0136 110.916 30.6161 110.764 30.2568C110.617 29.8919 110.404 29.5761 110.127 29.3093C109.854 29.0425 109.536 28.8383 109.171 28.6967C108.806 28.5497 108.406 28.4762 107.97 28.4762C107.54 28.4762 107.14 28.5497 106.77 28.6967C106.405 28.8383 106.086 29.0425 105.814 29.3093C105.542 29.5761 105.329 29.8919 105.177 30.2568C105.024 30.6161 104.948 31.0136 104.948 31.4493Z" fill="white"/>
<path d="M120.894 29.6115H123.451V28.5906H120.894V29.6115ZM120.894 31.8658H123.369V30.8939H120.894V31.8658ZM120.143 28.5906V34.308H121.27V28.5906H120.143Z" fill="white"/>
<path d="M128.328 31.4493C128.328 31.0844 128.404 30.7604 128.557 30.4773C128.709 30.1942 128.919 29.9709 129.186 29.8075C129.453 29.6442 129.763 29.5625 130.117 29.5625C130.476 29.5625 130.789 29.6442 131.056 29.8075C131.323 29.9709 131.53 30.1942 131.677 30.4773C131.824 30.7604 131.897 31.0844 131.897 31.4493C131.897 31.8141 131.821 32.1381 131.669 32.4212C131.522 32.7044 131.315 32.9276 131.048 33.091C130.781 33.2543 130.471 33.336 130.117 33.336C129.763 33.336 129.453 33.2543 129.186 33.091C128.919 32.9276 128.709 32.7044 128.557 32.4212C128.404 32.1381 128.328 31.8141 128.328 31.4493ZM127.095 31.4493C127.095 31.8794 127.168 32.2796 127.315 32.6499C127.462 33.0147 127.672 33.3333 127.944 33.6055C128.217 33.8778 128.535 34.0901 128.9 34.2426C129.27 34.3896 129.676 34.4631 130.117 34.4631C130.558 34.4631 130.961 34.3896 131.326 34.2426C131.696 34.0901 132.015 33.8778 132.281 33.6055C132.554 33.3333 132.763 33.0147 132.91 32.6499C133.063 32.2796 133.139 31.8794 133.139 31.4493C133.139 31.0136 133.063 30.6161 132.91 30.2568C132.763 29.8919 132.551 29.5761 132.273 29.3093C132.001 29.0425 131.682 28.8383 131.318 28.6967C130.953 28.5497 130.553 28.4762 130.117 28.4762C129.687 28.4762 129.287 28.5497 128.916 28.6967C128.551 28.8383 128.233 29.0425 127.961 29.3093C127.688 29.5761 127.476 29.8919 127.324 30.2568C127.171 30.6161 127.095 31.0136 127.095 31.4493Z" fill="white"/>
<path d="M138.24 31.6453L139.955 34.308H141.336L139.473 31.6453H138.24ZM136.941 28.5906V34.308H138.109V28.5906H136.941ZM137.652 29.587H138.787C138.994 29.587 139.171 29.6224 139.318 29.6932C139.471 29.7585 139.588 29.8566 139.669 29.9872C139.751 30.1125 139.792 30.2649 139.792 30.4446C139.792 30.6243 139.751 30.7795 139.669 30.9102C139.588 31.0354 139.471 31.1334 139.318 31.2042C139.171 31.2696 138.994 31.3022 138.787 31.3022H137.652V32.2334H138.861C139.313 32.2334 139.697 32.1571 140.012 32.0047C140.328 31.8522 140.571 31.6398 140.739 31.3676C140.908 31.0899 140.993 30.7713 140.993 30.412C140.993 30.0471 140.908 29.7286 140.739 29.4563C140.571 29.1841 140.328 28.9717 140.012 28.8193C139.697 28.6668 139.313 28.5906 138.861 28.5906H137.652V29.587Z" fill="white"/>
<path d="M151.006 34.308H153.889V33.3197H151.006V34.308ZM151.006 29.5788H153.889V28.5906H151.006V29.5788ZM151.006 31.7596H153.725V30.7877H151.006V31.7596ZM150.254 28.5906V34.308H151.381V28.5906H150.254Z" fill="white"/>
<path d="M160.226 32.315L158.675 28.5906H157.327L160.226 34.6428L163.126 28.5906H161.77L160.226 32.315Z" fill="white"/>
<path d="M167.397 34.308H170.28V33.3197H167.397V34.308ZM167.397 29.5788H170.28V28.5906H167.397V29.5788ZM167.397 31.7596H170.117V30.7877H167.397V31.7596ZM166.646 28.5906V34.308H167.773V28.5906H166.646Z" fill="white"/>
<path d="M175.63 31.6453L177.345 34.308H178.725L176.863 31.6453H175.63ZM174.331 28.5906V34.308H175.499V28.5906H174.331ZM175.042 29.587H176.177C176.384 29.587 176.561 29.6224 176.708 29.6932C176.86 29.7585 176.977 29.8566 177.059 29.9872C177.141 30.1125 177.182 30.2649 177.182 30.4446C177.182 30.6243 177.141 30.7795 177.059 30.9102C176.977 31.0354 176.86 31.1334 176.708 31.2042C176.561 31.2696 176.384 31.3022 176.177 31.3022H175.042V32.2334H176.25C176.702 32.2334 177.086 32.1571 177.402 32.0047C177.718 31.8522 177.96 31.6398 178.129 31.3676C178.298 31.0899 178.382 30.7713 178.382 30.412C178.382 30.0471 178.298 29.7286 178.129 29.4563C177.96 29.1841 177.718 28.9717 177.402 28.8193C177.086 28.6668 176.702 28.5906 176.25 28.5906H175.042V29.587Z" fill="white"/>
<path d="M185.473 28.5906L184.239 30.8939L183.014 28.5906H181.683L183.651 31.9475V34.308H184.836V31.9393L186.804 28.5906H185.473Z" fill="white"/>
<path d="M190.832 31.4493C190.832 31.0844 190.908 30.7604 191.06 30.4773C191.213 30.1942 191.422 29.9709 191.689 29.8075C191.956 29.6442 192.266 29.5625 192.62 29.5625C192.98 29.5625 193.293 29.6442 193.56 29.8075C193.826 29.9709 194.033 30.1942 194.18 30.4773C194.327 30.7604 194.401 31.0844 194.401 31.4493C194.401 31.8141 194.325 32.1381 194.172 32.4212C194.025 32.7044 193.818 32.9276 193.551 33.091C193.285 33.2543 192.974 33.336 192.62 33.336C192.266 33.336 191.956 33.2543 191.689 33.091C191.422 32.9276 191.213 32.7044 191.06 32.4212C190.908 32.1381 190.832 31.8141 190.832 31.4493ZM189.598 31.4493C189.598 31.8794 189.672 32.2796 189.819 32.6499C189.966 33.0147 190.175 33.3333 190.448 33.6055C190.72 33.8778 191.038 34.0901 191.403 34.2426C191.774 34.3896 192.179 34.4631 192.62 34.4631C193.061 34.4631 193.464 34.3896 193.829 34.2426C194.199 34.0901 194.518 33.8778 194.785 33.6055C195.057 33.3333 195.267 33.0147 195.414 32.6499C195.566 32.2796 195.642 31.8794 195.642 31.4493C195.642 31.0136 195.566 30.6161 195.414 30.2568C195.267 29.8919 195.054 29.5761 194.777 29.3093C194.504 29.0425 194.186 28.8383 193.821 28.6967C193.456 28.5497 193.056 28.4762 192.62 28.4762C192.19 28.4762 191.79 28.5497 191.42 28.6967C191.055 28.8383 190.736 29.0425 190.464 29.3093C190.192 29.5761 189.979 29.8919 189.827 30.2568C189.674 30.6161 189.598 31.0136 189.598 31.4493Z" fill="white"/>
<path d="M203.512 28.5906V32.1353L199.445 28.3047V34.308H200.572V30.7632L204.639 34.5938V28.5906H203.512Z" fill="white"/>
<path d="M209.533 34.308H212.416V33.3197H209.533V34.308ZM209.533 29.5788H212.416V28.5906H209.533V29.5788ZM209.533 31.7596H212.252V30.7877H209.533V31.7596ZM208.781 28.5906V34.308H209.908V28.5906H208.781Z" fill="white"/>
<path d="M32.2791 0H46.3493V10.7596H41.0197C39.8258 4.72535 34.6952 1.07226 32.2791 0Z" fill="#04E2AF"/>
<path d="M10.2303 22.1351V0.427732V0H0V22.6698C0 37.2127 12.5037 41.2048 18.7556 41.383H24.8298V31.1175H20.0344C12.6174 31.1175 10.4079 25.1292 10.2303 22.1351Z" fill="#9C6AFD"/>
<path d="M28.6698 19.2479L28.6698 40.9553L28.6698 41.3831L38.9001 41.3831L38.9001 18.7133C38.9001 4.17039 26.3964 0.178228 20.1446 5.45436e-06L14.0703 5.98539e-06L14.0703 10.2656L18.8658 10.2656C26.2828 10.2656 28.4922 16.2538 28.6698 19.2479Z" fill="#1A1C55"/>
</svg>
